<?xml version="1.0" encoding="utf-8" standalone="no"?>
<!DOCTYPE svg PUBLIC "-//W3C//DTD SVG 1.1//EN"
  "http://www.w3.org/Graphics/SVG/1.1/DTD/svg11.dtd">
<svg xmlns:xlink="http://www.w3.org/1999/xlink" width="710.379687pt" height="421.829062pt" viewBox="0 0 710.379687 421.829062" xmlns="http://www.w3.org/2000/svg" version="1.1">
 <metadata>
  <rdf:RDF xmlns:dc="http://purl.org/dc/elements/1.1/" xmlns:cc="http://creativecommons.org/ns#" xmlns:rdf="http://www.w3.org/1999/02/22-rdf-syntax-ns#">
   <cc:Work>
    <dc:type rdf:resource="http://purl.org/dc/dcmitype/StillImage"/>
    <dc:date>2025-06-18T12:04:39.286813</dc:date>
    <dc:format>image/svg+xml</dc:format>
    <dc:creator>
     <cc:Agent>
      <dc:title>Matplotlib v3.10.3, https://matplotlib.org/</dc:title>
     </cc:Agent>
    </dc:creator>
   </cc:Work>
  </rdf:RDF>
 </metadata>
 <defs>
  <style type="text/css">*{stroke-linejoin: round; stroke-linecap: butt}</style>
 </defs>
 <g id="figure_1">
  <g id="patch_1">
   <path d="M 0 421.829062 
L 710.379687 421.829062 
L 710.379687 0 
L 0 0 
z
" style="fill: #ffffff"/>
  </g>
  <g id="axes_1">
   <g id="patch_2">
    <path d="M 35.249688 386.753125 
L 703.179688 386.753125 
L 703.179688 37.635125 
L 35.249688 37.635125 
z
" style="fill: #ffffff"/>
   </g>
   <g id="patch_3">
    <path d="M 65.610142 386.753125 
L 239.098454 386.753125 
L 239.098454 128.459515 
L 65.610142 128.459515 
z
" clip-path="url(#pfe92c2909a)" style="fill: #4472c4; opacity: 0.8; stroke: #000000; stroke-linejoin: miter"/>
   </g>
   <g id="patch_4">
    <path d="M 282.470532 386.753125 
L 455.958843 386.753125 
L 455.958843 120.940051 
L 282.470532 120.940051 
z
" clip-path="url(#pfe92c2909a)" style="fill: #70ad47; opacity: 0.8; stroke: #000000; stroke-linejoin: miter"/>
   </g>
   <g id="patch_5">
    <path d="M 499.330921 386.753125 
L 672.819233 386.753125 
L 672.819233 78.777339 
L 499.330921 78.777339 
z
" clip-path="url(#pfe92c2909a)" style="fill: #ffc000; opacity: 0.8; stroke: #000000; stroke-linejoin: miter"/>
   </g>
   <g id="matplotlib.axis_1">
    <g id="xtick_1">
     <g id="line2d_1">
      <defs>
       <path id="m6d52a7ae6b" d="M 0 0 
L 0 3.5 
" style="stroke: #000000; stroke-width: 0.8"/>
      </defs>
      <g>
       <use xlink:href="#m6d52a7ae6b" x="152.354298" y="386.753125" style="stroke: #000000; stroke-width: 0.8"/>
      </g>
     </g>
     <g id="text_1">
      <!-- Standard -->
      <g transform="translate(128.945704 401.351562) scale(0.1 -0.1)">
       <defs>
        <path id="DejaVuSerif-53" d="M 594 225 
L 594 1288 
L 953 1284 
Q 969 753 1261 498 
Q 1553 244 2150 244 
Q 2706 244 2998 464 
Q 3291 684 3291 1106 
Q 3291 1444 3114 1625 
Q 2938 1806 2369 1978 
L 1753 2163 
Q 1084 2366 811 2669 
Q 538 2972 538 3500 
Q 538 4094 959 4422 
Q 1381 4750 2144 4750 
Q 2469 4750 2856 4679 
Q 3244 4609 3681 4475 
L 3681 3481 
L 3328 3481 
Q 3275 3975 2998 4195 
Q 2722 4416 2156 4416 
Q 1663 4416 1405 4214 
Q 1147 4013 1147 3628 
Q 1147 3294 1340 3103 
Q 1534 2913 2163 2725 
L 2741 2553 
Q 3375 2363 3645 2067 
Q 3916 1772 3916 1275 
Q 3916 597 3481 253 
Q 3047 -91 2188 -91 
Q 1803 -91 1404 -12 
Q 1006 66 594 225 
z
" transform="scale(0.015625)"/>
        <path id="DejaVuSerif-74" d="M 691 2988 
L 184 2988 
L 184 3322 
L 691 3322 
L 691 4353 
L 1269 4353 
L 1269 3322 
L 2350 3322 
L 2350 2988 
L 1269 2988 
L 1269 878 
Q 1269 456 1350 337 
Q 1431 219 1650 219 
Q 1875 219 1978 351 
Q 2081 484 2088 781 
L 2522 781 
Q 2497 328 2275 118 
Q 2053 -91 1600 -91 
Q 1103 -91 897 129 
Q 691 350 691 878 
L 691 2988 
z
" transform="scale(0.015625)"/>
        <path id="DejaVuSerif-61" d="M 2547 1044 
L 2547 1747 
L 1806 1747 
Q 1378 1747 1168 1562 
Q 959 1378 959 997 
Q 959 650 1171 447 
Q 1384 244 1747 244 
Q 2106 244 2326 466 
Q 2547 688 2547 1044 
z
M 3122 2075 
L 3122 331 
L 3634 331 
L 3634 0 
L 2547 0 
L 2547 359 
Q 2356 128 2106 18 
Q 1856 -91 1522 -91 
Q 969 -91 644 203 
Q 319 497 319 997 
Q 319 1513 691 1797 
Q 1063 2081 1741 2081 
L 2547 2081 
L 2547 2309 
Q 2547 2688 2317 2895 
Q 2088 3103 1672 3103 
Q 1328 3103 1125 2947 
Q 922 2791 872 2484 
L 575 2484 
L 575 3156 
Q 875 3284 1158 3348 
Q 1441 3413 1709 3413 
Q 2400 3413 2761 3070 
Q 3122 2728 3122 2075 
z
" transform="scale(0.015625)"/>
        <path id="DejaVuSerif-6e" d="M 263 0 
L 263 331 
L 781 331 
L 781 2988 
L 231 2988 
L 231 3322 
L 1356 3322 
L 1356 2731 
Q 1516 3069 1770 3241 
Q 2025 3413 2363 3413 
Q 2913 3413 3172 3097 
Q 3431 2781 3431 2113 
L 3431 331 
L 3944 331 
L 3944 0 
L 2356 0 
L 2356 331 
L 2853 331 
L 2853 1931 
Q 2853 2541 2703 2767 
Q 2553 2994 2175 2994 
Q 1775 2994 1565 2701 
Q 1356 2409 1356 1850 
L 1356 331 
L 1856 331 
L 1856 0 
L 263 0 
z
" transform="scale(0.015625)"/>
        <path id="DejaVuSerif-64" d="M 3359 331 
L 3909 331 
L 3909 0 
L 2784 0 
L 2784 519 
Q 2616 206 2355 57 
Q 2094 -91 1709 -91 
Q 1097 -91 708 395 
Q 319 881 319 1663 
Q 319 2444 706 2928 
Q 1094 3413 1709 3413 
Q 2094 3413 2355 3264 
Q 2616 3116 2784 2803 
L 2784 4531 
L 2241 4531 
L 2241 4863 
L 3359 4863 
L 3359 331 
z
M 2784 1497 
L 2784 1825 
Q 2784 2422 2554 2737 
Q 2325 3053 1888 3053 
Q 1444 3053 1217 2703 
Q 991 2353 991 1663 
Q 991 975 1217 622 
Q 1444 269 1888 269 
Q 2325 269 2554 583 
Q 2784 897 2784 1497 
z
" transform="scale(0.015625)"/>
        <path id="DejaVuSerif-72" d="M 3059 3328 
L 3059 2497 
L 2728 2497 
Q 2713 2744 2591 2866 
Q 2469 2988 2234 2988 
Q 1809 2988 1582 2694 
Q 1356 2400 1356 1850 
L 1356 331 
L 2022 331 
L 2022 0 
L 263 0 
L 263 331 
L 781 331 
L 781 2994 
L 231 2994 
L 231 3322 
L 1356 3322 
L 1356 2731 
Q 1525 3078 1790 3245 
Q 2056 3413 2438 3413 
Q 2578 3413 2733 3391 
Q 2888 3369 3059 3328 
z
" transform="scale(0.015625)"/>
       </defs>
       <use xlink:href="#DejaVuSerif-53"/>
       <use xlink:href="#DejaVuSerif-74" transform="translate(68.505859 0)"/>
       <use xlink:href="#DejaVuSerif-61" transform="translate(108.691406 0)"/>
       <use xlink:href="#DejaVuSerif-6e" transform="translate(168.310547 0)"/>
       <use xlink:href="#DejaVuSerif-64" transform="translate(232.714844 0)"/>
       <use xlink:href="#DejaVuSerif-61" transform="translate(296.728516 0)"/>
       <use xlink:href="#DejaVuSerif-72" transform="translate(356.347656 0)"/>
       <use xlink:href="#DejaVuSerif-64" transform="translate(404.150391 0)"/>
      </g>
      <!-- Nuclear -->
      <g transform="translate(132.029298 412.549375) scale(0.1 -0.1)">
       <defs>
        <path id="DejaVuSerif-4e" d="M 313 0 
L 313 331 
L 941 331 
L 941 4331 
L 313 4331 
L 313 4666 
L 1509 4666 
L 4306 984 
L 4306 4331 
L 3681 4331 
L 3681 4666 
L 5319 4666 
L 5319 4331 
L 4691 4331 
L 4691 -91 
L 4313 -91 
L 1325 3841 
L 1325 331 
L 1953 331 
L 1953 0 
L 313 0 
z
" transform="scale(0.015625)"/>
        <path id="DejaVuSerif-75" d="M 2266 3322 
L 3341 3322 
L 3341 331 
L 3884 331 
L 3884 0 
L 2766 0 
L 2766 588 
Q 2606 256 2353 82 
Q 2100 -91 1766 -91 
Q 1213 -91 952 223 
Q 691 538 691 1209 
L 691 2988 
L 172 2988 
L 172 3322 
L 1269 3322 
L 1269 1388 
Q 1269 781 1417 556 
Q 1566 331 1947 331 
Q 2347 331 2556 625 
Q 2766 919 2766 1478 
L 2766 2988 
L 2266 2988 
L 2266 3322 
z
" transform="scale(0.015625)"/>
        <path id="DejaVuSerif-63" d="M 3291 997 
Q 3169 466 2822 187 
Q 2475 -91 1925 -91 
Q 1200 -91 759 389 
Q 319 869 319 1663 
Q 319 2459 759 2936 
Q 1200 3413 1925 3413 
Q 2241 3413 2553 3339 
Q 2866 3266 3181 3116 
L 3181 2266 
L 2847 2266 
Q 2781 2703 2561 2903 
Q 2341 3103 1931 3103 
Q 1466 3103 1228 2742 
Q 991 2381 991 1663 
Q 991 944 1227 581 
Q 1463 219 1931 219 
Q 2303 219 2525 412 
Q 2747 606 2828 997 
L 3291 997 
z
" transform="scale(0.015625)"/>
        <path id="DejaVuSerif-6c" d="M 1313 331 
L 1856 331 
L 1856 0 
L 184 0 
L 184 331 
L 738 331 
L 738 4531 
L 184 4531 
L 184 4863 
L 1313 4863 
L 1313 331 
z
" transform="scale(0.015625)"/>
        <path id="DejaVuSerif-65" d="M 3469 1600 
L 991 1600 
L 991 1575 
Q 991 903 1244 561 
Q 1497 219 1991 219 
Q 2369 219 2611 417 
Q 2853 616 2950 1006 
L 3413 1006 
Q 3275 459 2904 184 
Q 2534 -91 1931 -91 
Q 1203 -91 761 389 
Q 319 869 319 1663 
Q 319 2450 753 2931 
Q 1188 3413 1894 3413 
Q 2647 3413 3050 2948 
Q 3453 2484 3469 1600 
z
M 2791 1931 
Q 2772 2513 2545 2808 
Q 2319 3103 1894 3103 
Q 1497 3103 1269 2806 
Q 1041 2509 991 1931 
L 2791 1931 
z
" transform="scale(0.015625)"/>
       </defs>
       <use xlink:href="#DejaVuSerif-4e"/>
       <use xlink:href="#DejaVuSerif-75" transform="translate(87.5 0)"/>
       <use xlink:href="#DejaVuSerif-63" transform="translate(151.904297 0)"/>
       <use xlink:href="#DejaVuSerif-6c" transform="translate(207.910156 0)"/>
       <use xlink:href="#DejaVuSerif-65" transform="translate(239.892578 0)"/>
       <use xlink:href="#DejaVuSerif-61" transform="translate(299.072266 0)"/>
       <use xlink:href="#DejaVuSerif-72" transform="translate(358.691406 0)"/>
      </g>
     </g>
    </g>
    <g id="xtick_2">
     <g id="line2d_2">
      <g>
       <use xlink:href="#m6d52a7ae6b" x="369.214687" y="386.753125" style="stroke: #000000; stroke-width: 0.8"/>
      </g>
     </g>
     <g id="text_2">
      <!-- Mitochondrial -->
      <g transform="translate(333.455312 401.351562) scale(0.1 -0.1)">
       <defs>
        <path id="DejaVuSerif-4d" d="M 353 0 
L 353 331 
L 947 331 
L 947 4331 
L 319 4331 
L 319 4666 
L 1678 4666 
L 3316 1344 
L 4953 4666 
L 6228 4666 
L 6228 4331 
L 5606 4331 
L 5606 331 
L 6203 331 
L 6203 0 
L 4378 0 
L 4378 331 
L 4972 331 
L 4972 3938 
L 3372 684 
L 2931 684 
L 1331 3938 
L 1331 331 
L 1925 331 
L 1925 0 
L 353 0 
z
" transform="scale(0.015625)"/>
        <path id="DejaVuSerif-69" d="M 622 4353 
Q 622 4497 726 4603 
Q 831 4709 978 4709 
Q 1122 4709 1226 4603 
Q 1331 4497 1331 4353 
Q 1331 4206 1228 4103 
Q 1125 4000 978 4000 
Q 831 4000 726 4103 
Q 622 4206 622 4353 
z
M 1356 331 
L 1900 331 
L 1900 0 
L 231 0 
L 231 331 
L 781 331 
L 781 2988 
L 231 2988 
L 231 3322 
L 1356 3322 
L 1356 331 
z
" transform="scale(0.015625)"/>
        <path id="DejaVuSerif-6f" d="M 1925 219 
Q 2388 219 2623 584 
Q 2859 950 2859 1663 
Q 2859 2375 2623 2739 
Q 2388 3103 1925 3103 
Q 1463 3103 1227 2739 
Q 991 2375 991 1663 
Q 991 950 1228 584 
Q 1466 219 1925 219 
z
M 1925 -91 
Q 1200 -91 759 389 
Q 319 869 319 1663 
Q 319 2456 758 2934 
Q 1197 3413 1925 3413 
Q 2653 3413 3092 2934 
Q 3531 2456 3531 1663 
Q 3531 869 3092 389 
Q 2653 -91 1925 -91 
z
" transform="scale(0.015625)"/>
        <path id="DejaVuSerif-68" d="M 263 0 
L 263 331 
L 781 331 
L 781 4531 
L 231 4531 
L 231 4863 
L 1356 4863 
L 1356 2731 
Q 1516 3069 1770 3241 
Q 2025 3413 2363 3413 
Q 2913 3413 3172 3097 
Q 3431 2781 3431 2113 
L 3431 331 
L 3944 331 
L 3944 0 
L 2356 0 
L 2356 331 
L 2853 331 
L 2853 1931 
Q 2853 2541 2704 2764 
Q 2556 2988 2175 2988 
Q 1775 2988 1565 2697 
Q 1356 2406 1356 1850 
L 1356 331 
L 1856 331 
L 1856 0 
L 263 0 
z
" transform="scale(0.015625)"/>
       </defs>
       <use xlink:href="#DejaVuSerif-4d"/>
       <use xlink:href="#DejaVuSerif-69" transform="translate(102.392578 0)"/>
       <use xlink:href="#DejaVuSerif-74" transform="translate(134.375 0)"/>
       <use xlink:href="#DejaVuSerif-6f" transform="translate(174.560547 0)"/>
       <use xlink:href="#DejaVuSerif-63" transform="translate(234.765625 0)"/>
       <use xlink:href="#DejaVuSerif-68" transform="translate(290.771484 0)"/>
       <use xlink:href="#DejaVuSerif-6f" transform="translate(355.175781 0)"/>
       <use xlink:href="#DejaVuSerif-6e" transform="translate(415.380859 0)"/>
       <use xlink:href="#DejaVuSerif-64" transform="translate(479.785156 0)"/>
       <use xlink:href="#DejaVuSerif-72" transform="translate(543.798828 0)"/>
       <use xlink:href="#DejaVuSerif-69" transform="translate(591.601562 0)"/>
       <use xlink:href="#DejaVuSerif-61" transform="translate(623.583984 0)"/>
       <use xlink:href="#DejaVuSerif-6c" transform="translate(683.203125 0)"/>
      </g>
      <!-- Variant -->
      <g transform="translate(350.87875 412.549375) scale(0.1 -0.1)">
       <defs>
        <path id="DejaVuSerif-56" d="M 1119 4331 
L 2497 750 
L 3872 4331 
L 3347 4331 
L 3347 4666 
L 4716 4666 
L 4716 4331 
L 4263 4331 
L 2597 0 
L 2059 0 
L 403 4331 
L -63 4331 
L -63 4666 
L 1638 4666 
L 1638 4331 
L 1119 4331 
z
" transform="scale(0.015625)"/>
       </defs>
       <use xlink:href="#DejaVuSerif-56"/>
       <use xlink:href="#DejaVuSerif-61" transform="translate(63.091797 0)"/>
       <use xlink:href="#DejaVuSerif-72" transform="translate(122.710938 0)"/>
       <use xlink:href="#DejaVuSerif-69" transform="translate(170.513672 0)"/>
       <use xlink:href="#DejaVuSerif-61" transform="translate(202.496094 0)"/>
       <use xlink:href="#DejaVuSerif-6e" transform="translate(262.115234 0)"/>
       <use xlink:href="#DejaVuSerif-74" transform="translate(326.519531 0)"/>
      </g>
     </g>
    </g>
    <g id="xtick_3">
     <g id="line2d_3">
      <g>
       <use xlink:href="#m6d52a7ae6b" x="586.075077" y="386.753125" style="stroke: #000000; stroke-width: 0.8"/>
      </g>
     </g>
     <g id="text_3">
      <!-- Ciliate -->
      <g transform="translate(569.50164 401.351562) scale(0.1 -0.1)">
       <defs>
        <path id="DejaVuSerif-43" d="M 4513 1234 
Q 4306 581 3820 245 
Q 3334 -91 2591 -91 
Q 2134 -91 1743 65 
Q 1353 222 1050 525 
Q 700 875 529 1320 
Q 359 1766 359 2328 
Q 359 3416 987 4083 
Q 1616 4750 2644 4750 
Q 3025 4750 3456 4650 
Q 3888 4550 4384 4347 
L 4384 3272 
L 4031 3272 
Q 3916 3859 3567 4137 
Q 3219 4416 2591 4416 
Q 1844 4416 1459 3886 
Q 1075 3356 1075 2328 
Q 1075 1303 1459 773 
Q 1844 244 2591 244 
Q 3113 244 3450 492 
Q 3788 741 3938 1234 
L 4513 1234 
z
" transform="scale(0.015625)"/>
       </defs>
       <use xlink:href="#DejaVuSerif-43"/>
       <use xlink:href="#DejaVuSerif-69" transform="translate(76.513672 0)"/>
       <use xlink:href="#DejaVuSerif-6c" transform="translate(108.496094 0)"/>
       <use xlink:href="#DejaVuSerif-69" transform="translate(140.478516 0)"/>
       <use xlink:href="#DejaVuSerif-61" transform="translate(172.460938 0)"/>
       <use xlink:href="#DejaVuSerif-74" transform="translate(232.080078 0)"/>
       <use xlink:href="#DejaVuSerif-65" transform="translate(272.265625 0)"/>
      </g>
      <!-- Nuclear -->
      <g transform="translate(565.750077 412.549375) scale(0.1 -0.1)">
       <use xlink:href="#DejaVuSerif-4e"/>
       <use xlink:href="#DejaVuSerif-75" transform="translate(87.5 0)"/>
       <use xlink:href="#DejaVuSerif-63" transform="translate(151.904297 0)"/>
       <use xlink:href="#DejaVuSerif-6c" transform="translate(207.910156 0)"/>
       <use xlink:href="#DejaVuSerif-65" transform="translate(239.892578 0)"/>
       <use xlink:href="#DejaVuSerif-61" transform="translate(299.072266 0)"/>
       <use xlink:href="#DejaVuSerif-72" transform="translate(358.691406 0)"/>
      </g>
     </g>
    </g>
   </g>
   <g id="matplotlib.axis_2">
    <g id="ytick_1">
     <g id="line2d_4">
      <path d="M 35.249688 386.753125 
L 703.179688 386.753125 
" clip-path="url(#pfe92c2909a)" style="fill: none; stroke: #b0b0b0; stroke-opacity: 0.3; stroke-width: 0.8; stroke-linecap: square"/>
     </g>
     <g id="line2d_5">
      <defs>
       <path id="m109bf24de8" d="M 0 0 
L -3.5 0 
" style="stroke: #000000; stroke-width: 0.8"/>
      </defs>
      <g>
       <use xlink:href="#m109bf24de8" x="35.249688" y="386.753125" style="stroke: #000000; stroke-width: 0.8"/>
      </g>
     </g>
     <g id="text_4">
      <!-- 0 -->
      <g transform="translate(21.887188 390.552344) scale(0.1 -0.1)">
       <defs>
        <path id="DejaVuSerif-30" d="M 2034 219 
Q 2513 219 2750 744 
Q 2988 1269 2988 2328 
Q 2988 3391 2750 3916 
Q 2513 4441 2034 4441 
Q 1556 4441 1318 3916 
Q 1081 3391 1081 2328 
Q 1081 1269 1318 744 
Q 1556 219 2034 219 
z
M 2034 -91 
Q 1275 -91 848 546 
Q 422 1184 422 2328 
Q 422 3475 848 4112 
Q 1275 4750 2034 4750 
Q 2797 4750 3222 4112 
Q 3647 3475 3647 2328 
Q 3647 1184 3222 546 
Q 2797 -91 2034 -91 
z
" transform="scale(0.015625)"/>
       </defs>
       <use xlink:href="#DejaVuSerif-30"/>
      </g>
     </g>
    </g>
    <g id="ytick_2">
     <g id="line2d_6">
      <path d="M 35.249688 333.042663 
L 703.179688 333.042663 
" clip-path="url(#pfe92c2909a)" style="fill: none; stroke: #b0b0b0; stroke-opacity: 0.3; stroke-width: 0.8; stroke-linecap: square"/>
     </g>
     <g id="line2d_7">
      <g>
       <use xlink:href="#m109bf24de8" x="35.249688" y="333.042663" style="stroke: #000000; stroke-width: 0.8"/>
      </g>
     </g>
     <g id="text_5">
      <!-- 1 -->
      <g transform="translate(21.887188 336.841882) scale(0.1 -0.1)">
       <defs>
        <path id="DejaVuSerif-31" d="M 909 0 
L 909 331 
L 1722 331 
L 1722 4213 
L 781 3603 
L 781 4013 
L 1919 4750 
L 2350 4750 
L 2350 331 
L 3163 331 
L 3163 0 
L 909 0 
z
" transform="scale(0.015625)"/>
       </defs>
       <use xlink:href="#DejaVuSerif-31"/>
      </g>
     </g>
    </g>
    <g id="ytick_3">
     <g id="line2d_8">
      <path d="M 35.249688 279.332202 
L 703.179688 279.332202 
" clip-path="url(#pfe92c2909a)" style="fill: none; stroke: #b0b0b0; stroke-opacity: 0.3; stroke-width: 0.8; stroke-linecap: square"/>
     </g>
     <g id="line2d_9">
      <g>
       <use xlink:href="#m109bf24de8" x="35.249688" y="279.332202" style="stroke: #000000; stroke-width: 0.8"/>
      </g>
     </g>
     <g id="text_6">
      <!-- 2 -->
      <g transform="translate(21.887188 283.131421) scale(0.1 -0.1)">
       <defs>
        <path id="DejaVuSerif-32" d="M 819 3553 
L 469 3553 
L 469 4384 
Q 803 4563 1142 4656 
Q 1481 4750 1806 4750 
Q 2534 4750 2956 4397 
Q 3378 4044 3378 3438 
Q 3378 2753 2422 1800 
Q 2347 1728 2309 1691 
L 1131 513 
L 3078 513 
L 3078 1088 
L 3444 1088 
L 3444 0 
L 434 0 
L 434 341 
L 1850 1753 
Q 2319 2222 2519 2614 
Q 2719 3006 2719 3438 
Q 2719 3909 2473 4175 
Q 2228 4441 1797 4441 
Q 1350 4441 1106 4219 
Q 863 3997 819 3553 
z
" transform="scale(0.015625)"/>
       </defs>
       <use xlink:href="#DejaVuSerif-32"/>
      </g>
     </g>
    </g>
    <g id="ytick_4">
     <g id="line2d_10">
      <path d="M 35.249688 225.62174 
L 703.179688 225.62174 
" clip-path="url(#pfe92c2909a)" style="fill: none; stroke: #b0b0b0; stroke-opacity: 0.3; stroke-width: 0.8; stroke-linecap: square"/>
     </g>
     <g id="line2d_11">
      <g>
       <use xlink:href="#m109bf24de8" x="35.249688" y="225.62174" style="stroke: #000000; stroke-width: 0.8"/>
      </g>
     </g>
     <g id="text_7">
      <!-- 3 -->
      <g transform="translate(21.887188 229.420959) scale(0.1 -0.1)">
       <defs>
        <path id="DejaVuSerif-33" d="M 622 4469 
Q 988 4606 1323 4678 
Q 1659 4750 1953 4750 
Q 2638 4750 3022 4454 
Q 3406 4159 3406 3634 
Q 3406 3213 3140 2930 
Q 2875 2647 2388 2547 
Q 2963 2466 3280 2130 
Q 3597 1794 3597 1259 
Q 3597 606 3158 257 
Q 2719 -91 1894 -91 
Q 1528 -91 1179 -12 
Q 831 66 488 225 
L 488 1131 
L 838 1131 
Q 869 681 1141 450 
Q 1413 219 1906 219 
Q 2384 219 2661 495 
Q 2938 772 2938 1253 
Q 2938 1803 2653 2086 
Q 2369 2369 1819 2369 
L 1522 2369 
L 1522 2688 
L 1678 2688 
Q 2225 2688 2498 2914 
Q 2772 3141 2772 3597 
Q 2772 4006 2547 4223 
Q 2322 4441 1900 4441 
Q 1478 4441 1245 4241 
Q 1013 4041 972 3647 
L 622 3647 
L 622 4469 
z
" transform="scale(0.015625)"/>
       </defs>
       <use xlink:href="#DejaVuSerif-33"/>
      </g>
     </g>
    </g>
    <g id="ytick_5">
     <g id="line2d_12">
      <path d="M 35.249688 171.911279 
L 703.179688 171.911279 
" clip-path="url(#pfe92c2909a)" style="fill: none; stroke: #b0b0b0; stroke-opacity: 0.3; stroke-width: 0.8; stroke-linecap: square"/>
     </g>
     <g id="line2d_13">
      <g>
       <use xlink:href="#m109bf24de8" x="35.249688" y="171.911279" style="stroke: #000000; stroke-width: 0.8"/>
      </g>
     </g>
     <g id="text_8">
      <!-- 4 -->
      <g transform="translate(21.887188 175.710498) scale(0.1 -0.1)">
       <defs>
        <path id="DejaVuSerif-34" d="M 2234 1581 
L 2234 4063 
L 641 1581 
L 2234 1581 
z
M 3609 0 
L 1484 0 
L 1484 331 
L 2234 331 
L 2234 1247 
L 197 1247 
L 197 1588 
L 2241 4750 
L 2859 4750 
L 2859 1581 
L 3750 1581 
L 3750 1247 
L 2859 1247 
L 2859 331 
L 3609 331 
L 3609 0 
z
" transform="scale(0.015625)"/>
       </defs>
       <use xlink:href="#DejaVuSerif-34"/>
      </g>
     </g>
    </g>
    <g id="ytick_6">
     <g id="line2d_14">
      <path d="M 35.249688 118.200817 
L 703.179688 118.200817 
" clip-path="url(#pfe92c2909a)" style="fill: none; stroke: #b0b0b0; stroke-opacity: 0.3; stroke-width: 0.8; stroke-linecap: square"/>
     </g>
     <g id="line2d_15">
      <g>
       <use xlink:href="#m109bf24de8" x="35.249688" y="118.200817" style="stroke: #000000; stroke-width: 0.8"/>
      </g>
     </g>
     <g id="text_9">
      <!-- 5 -->
      <g transform="translate(21.887188 122.000036) scale(0.1 -0.1)">
       <defs>
        <path id="DejaVuSerif-35" d="M 3219 4666 
L 3219 4153 
L 1081 4153 
L 1081 2816 
Q 1244 2928 1461 2984 
Q 1678 3041 1947 3041 
Q 2703 3041 3140 2622 
Q 3578 2203 3578 1478 
Q 3578 738 3136 323 
Q 2694 -91 1894 -91 
Q 1572 -91 1234 -12 
Q 897 66 544 225 
L 544 1131 
L 897 1131 
Q 925 688 1179 453 
Q 1434 219 1894 219 
Q 2388 219 2653 544 
Q 2919 869 2919 1478 
Q 2919 2084 2655 2407 
Q 2391 2731 1894 2731 
Q 1613 2731 1398 2631 
Q 1184 2531 1019 2322 
L 750 2322 
L 750 4666 
L 3219 4666 
z
" transform="scale(0.015625)"/>
       </defs>
       <use xlink:href="#DejaVuSerif-35"/>
      </g>
     </g>
    </g>
    <g id="ytick_7">
     <g id="line2d_16">
      <path d="M 35.249688 64.490356 
L 703.179688 64.490356 
" clip-path="url(#pfe92c2909a)" style="fill: none; stroke: #b0b0b0; stroke-opacity: 0.3; stroke-width: 0.8; stroke-linecap: square"/>
     </g>
     <g id="line2d_17">
      <g>
       <use xlink:href="#m109bf24de8" x="35.249688" y="64.490356" style="stroke: #000000; stroke-width: 0.8"/>
      </g>
     </g>
     <g id="text_10">
      <!-- 6 -->
      <g transform="translate(21.887188 68.289575) scale(0.1 -0.1)">
       <defs>
        <path id="DejaVuSerif-36" d="M 2094 219 
Q 2534 219 2771 542 
Q 3009 866 3009 1472 
Q 3009 2078 2771 2401 
Q 2534 2725 2094 2725 
Q 1647 2725 1412 2412 
Q 1178 2100 1178 1509 
Q 1178 888 1415 553 
Q 1653 219 2094 219 
z
M 1075 2569 
Q 1288 2803 1556 2918 
Q 1825 3034 2163 3034 
Q 2859 3034 3264 2615 
Q 3669 2197 3669 1472 
Q 3669 763 3233 336 
Q 2797 -91 2069 -91 
Q 1278 -91 853 498 
Q 428 1088 428 2181 
Q 428 3406 931 4078 
Q 1434 4750 2350 4750 
Q 2597 4750 2869 4703 
Q 3141 4656 3425 4563 
L 3425 3794 
L 3072 3794 
Q 3034 4109 2831 4275 
Q 2628 4441 2284 4441 
Q 1678 4441 1381 3981 
Q 1084 3522 1075 2569 
z
" transform="scale(0.015625)"/>
       </defs>
       <use xlink:href="#DejaVuSerif-36"/>
      </g>
     </g>
    </g>
    <g id="text_11">
     <!-- σ_intra / σ_inter -->
     <g transform="translate(15.293594 257.368031) rotate(-90) scale(0.11 -0.11)">
      <defs>
       <path id="DejaVuSerif-3c3" d="M 1925 219 
Q 2388 219 2623 584 
Q 2859 950 2859 1663 
Q 2859 2309 2625 2706 
Q 2416 3044 1925 3047 
Q 1447 3047 1225 2706 
Q 991 2341 991 1663 
Q 991 950 1228 584 
Q 1466 219 1925 219 
z
M 1931 3322 
Q 3206 3322 4181 3322 
L 4181 2988 
L 3038 2988 
Q 3531 2509 3531 1663 
Q 3531 869 3092 389 
Q 2653 -91 1925 -91 
Q 1200 -91 759 389 
Q 319 869 319 1662 
Q 319 2456 756 2934 
Q 1113 3322 1931 3322 
z
" transform="scale(0.015625)"/>
       <path id="DejaVuSerif-5f" d="M 3200 -1259 
L 3200 -1509 
L 0 -1509 
L 0 -1259 
L 3200 -1259 
z
" transform="scale(0.015625)"/>
       <path id="DejaVuSerif-20" transform="scale(0.015625)"/>
       <path id="DejaVuSerif-2f" d="M 1656 4666 
L 2156 4666 
L 500 -594 
L 0 -594 
L 1656 4666 
z
" transform="scale(0.015625)"/>
      </defs>
      <use xlink:href="#DejaVuSerif-3c3"/>
      <use xlink:href="#DejaVuSerif-5f" transform="translate(68.261719 0)"/>
      <use xlink:href="#DejaVuSerif-69" transform="translate(118.261719 0)"/>
      <use xlink:href="#DejaVuSerif-6e" transform="translate(150.244141 0)"/>
      <use xlink:href="#DejaVuSerif-74" transform="translate(214.648438 0)"/>
      <use xlink:href="#DejaVuSerif-72" transform="translate(254.833984 0)"/>
      <use xlink:href="#DejaVuSerif-61" transform="translate(302.636719 0)"/>
      <use xlink:href="#DejaVuSerif-20" transform="translate(362.255859 0)"/>
      <use xlink:href="#DejaVuSerif-2f" transform="translate(394.042969 0)"/>
      <use xlink:href="#DejaVuSerif-20" transform="translate(427.734375 0)"/>
      <use xlink:href="#DejaVuSerif-3c3" transform="translate(459.521484 0)"/>
      <use xlink:href="#DejaVuSerif-5f" transform="translate(527.783203 0)"/>
      <use xlink:href="#DejaVuSerif-69" transform="translate(577.783203 0)"/>
      <use xlink:href="#DejaVuSerif-6e" transform="translate(609.765625 0)"/>
      <use xlink:href="#DejaVuSerif-74" transform="translate(674.169922 0)"/>
      <use xlink:href="#DejaVuSerif-65" transform="translate(714.355469 0)"/>
      <use xlink:href="#DejaVuSerif-72" transform="translate(773.535156 0)"/>
     </g>
    </g>
   </g>
   <g id="patch_6">
    <path d="M 35.249688 386.753125 
L 35.249688 37.635125 
" style="fill: none; stroke: #000000; stroke-width: 0.8; stroke-linejoin: miter; stroke-linecap: square"/>
   </g>
   <g id="patch_7">
    <path d="M 703.179688 386.753125 
L 703.179688 37.635125 
" style="fill: none; stroke: #000000; stroke-width: 0.8; stroke-linejoin: miter; stroke-linecap: square"/>
   </g>
   <g id="patch_8">
    <path d="M 35.249688 386.753125 
L 703.179688 386.753125 
" style="fill: none; stroke: #000000; stroke-width: 0.8; stroke-linejoin: miter; stroke-linecap: square"/>
   </g>
   <g id="patch_9">
    <path d="M 35.249688 37.635125 
L 703.179688 37.635125 
" style="fill: none; stroke: #000000; stroke-width: 0.8; stroke-linejoin: miter; stroke-linecap: square"/>
   </g>
   <g id="text_12">
    <!-- 4.809 -->
    <g transform="translate(133.566798 123.278367) scale(0.12 -0.12)">
     <defs>
      <path id="DejaVuSerif-Bold-34" d="M 4084 0 
L 1516 0 
L 1516 378 
L 2209 378 
L 2209 1228 
L 263 1228 
L 263 1588 
L 2216 4750 
L 3391 4750 
L 3391 1631 
L 4191 1631 
L 4191 1228 
L 3391 1228 
L 3391 378 
L 4084 378 
L 4084 0 
z
M 2209 1631 
L 2209 3897 
L 819 1631 
L 2209 1631 
z
" transform="scale(0.015625)"/>
      <path id="DejaVuSerif-Bold-2e" d="M 519 506 
Q 519 750 694 925 
Q 869 1100 1113 1100 
Q 1359 1100 1534 925 
Q 1709 750 1709 506 
Q 1709 259 1534 84 
Q 1359 -91 1113 -91 
Q 869 -91 694 84 
Q 519 259 519 506 
z
" transform="scale(0.015625)"/>
      <path id="DejaVuSerif-Bold-38" d="M 2975 2484 
Q 3531 2394 3820 2075 
Q 4109 1756 4109 1241 
Q 4109 597 3623 253 
Q 3138 -91 2222 -91 
Q 1306 -91 818 253 
Q 331 597 331 1241 
Q 331 1756 622 2075 
Q 913 2394 1466 2484 
Q 975 2597 731 2861 
Q 488 3125 488 3531 
Q 488 4125 931 4437 
Q 1375 4750 2222 4750 
Q 3066 4750 3511 4437 
Q 3956 4125 3956 3531 
Q 3956 3125 3711 2861 
Q 3466 2597 2975 2484 
z
M 2747 3519 
Q 2747 4013 2628 4198 
Q 2509 4384 2222 4384 
Q 1931 4384 1814 4198 
Q 1697 4013 1697 3519 
Q 1697 3028 1814 2845 
Q 1931 2663 2222 2663 
Q 2513 2663 2630 2845 
Q 2747 3028 2747 3519 
z
M 2869 1294 
Q 2869 1866 2723 2081 
Q 2578 2297 2222 2297 
Q 1863 2297 1719 2081 
Q 1575 1866 1575 1294 
Q 1575 716 1720 495 
Q 1866 275 2222 275 
Q 2575 275 2722 495 
Q 2869 716 2869 1294 
z
" transform="scale(0.015625)"/>
      <path id="DejaVuSerif-Bold-30" d="M 2228 275 
Q 2603 275 2742 615 
Q 2881 956 2881 2328 
Q 2881 3691 2742 4037 
Q 2603 4384 2228 4384 
Q 1853 4384 1714 4043 
Q 1575 3703 1575 2328 
Q 1575 956 1714 615 
Q 1853 275 2228 275 
z
M 2228 -91 
Q 1294 -91 797 532 
Q 300 1156 300 2328 
Q 300 3500 797 4125 
Q 1294 4750 2228 4750 
Q 3159 4750 3656 4125 
Q 4153 3500 4153 2328 
Q 4153 1156 3656 532 
Q 3159 -91 2228 -91 
z
" transform="scale(0.015625)"/>
      <path id="DejaVuSerif-Bold-39" d="M 2181 4384 
Q 1859 4384 1723 4111 
Q 1588 3838 1588 3163 
Q 1588 2488 1723 2214 
Q 1859 1941 2181 1941 
Q 2503 1941 2640 2214 
Q 2778 2488 2778 3163 
Q 2778 3838 2640 4111 
Q 2503 4384 2181 4384 
z
M 2878 1900 
Q 2672 1734 2420 1651 
Q 2169 1569 1875 1569 
Q 1163 1569 755 1986 
Q 347 2403 347 3138 
Q 347 3913 803 4331 
Q 1259 4750 2106 4750 
Q 3063 4750 3556 4172 
Q 4050 3594 4050 2478 
Q 4050 1206 3503 557 
Q 2956 -91 1881 -91 
Q 1600 -91 1278 -44 
Q 956 3 588 97 
L 588 922 
L 966 922 
Q 1044 603 1261 439 
Q 1478 275 1825 275 
Q 2375 275 2625 658 
Q 2875 1041 2878 1900 
z
" transform="scale(0.015625)"/>
     </defs>
     <use xlink:href="#DejaVuSerif-Bold-34"/>
     <use xlink:href="#DejaVuSerif-Bold-2e" transform="translate(69.580078 0)"/>
     <use xlink:href="#DejaVuSerif-Bold-38" transform="translate(104.394531 0)"/>
     <use xlink:href="#DejaVuSerif-Bold-30" transform="translate(173.974609 0)"/>
     <use xlink:href="#DejaVuSerif-Bold-39" transform="translate(243.554688 0)"/>
    </g>
   </g>
   <g id="text_13">
    <!-- 4.949 -->
    <g transform="translate(350.427187 115.758903) scale(0.12 -0.12)">
     <use xlink:href="#DejaVuSerif-Bold-34"/>
     <use xlink:href="#DejaVuSerif-Bold-2e" transform="translate(69.580078 0)"/>
     <use xlink:href="#DejaVuSerif-Bold-39" transform="translate(104.394531 0)"/>
     <use xlink:href="#DejaVuSerif-Bold-34" transform="translate(173.974609 0)"/>
     <use xlink:href="#DejaVuSerif-Bold-39" transform="translate(243.554688 0)"/>
    </g>
   </g>
   <g id="text_14">
    <!-- 5.734 -->
    <g transform="translate(567.287577 73.59619) scale(0.12 -0.12)">
     <defs>
      <path id="DejaVuSerif-Bold-35" d="M 3609 4666 
L 3609 3847 
L 1113 3847 
L 1113 2822 
Q 1319 2981 1572 3062 
Q 1825 3144 2106 3144 
Q 2969 3144 3469 2708 
Q 3969 2272 3969 1522 
Q 3969 759 3469 334 
Q 2969 -91 2069 -91 
Q 1688 -91 1311 -28 
Q 934 34 525 166 
L 525 1184 
L 900 1184 
Q 919 725 1139 500 
Q 1359 275 1791 275 
Q 2250 275 2472 583 
Q 2694 891 2694 1522 
Q 2694 2144 2476 2451 
Q 2259 2759 1819 2759 
Q 1581 2759 1395 2661 
Q 1209 2563 1050 2356 
L 738 2356 
L 738 4666 
L 3609 4666 
z
" transform="scale(0.015625)"/>
      <path id="DejaVuSerif-Bold-37" d="M 3922 3872 
L 1997 0 
L 1363 0 
L 3238 3781 
L 934 3781 
L 934 3150 
L 506 3150 
L 506 4666 
L 3922 4666 
L 3922 3872 
z
" transform="scale(0.015625)"/>
      <path id="DejaVuSerif-Bold-33" d="M 550 4531 
Q 963 4641 1350 4695 
Q 1738 4750 2106 4750 
Q 2950 4750 3401 4448 
Q 3853 4147 3853 3584 
Q 3853 3163 3593 2900 
Q 3334 2638 2834 2547 
Q 3444 2450 3744 2131 
Q 4044 1813 4044 1259 
Q 4044 606 3526 257 
Q 3009 -91 2028 -91 
Q 1659 -91 1267 -28 
Q 875 34 447 159 
L 447 1184 
L 825 1184 
Q 859 741 1103 508 
Q 1347 275 1778 275 
Q 2253 275 2512 539 
Q 2772 803 2772 1288 
Q 2772 1794 2501 2069 
Q 2231 2344 1734 2344 
L 1528 2344 
L 1528 2719 
L 1691 2719 
Q 2150 2719 2381 2931 
Q 2613 3144 2613 3566 
Q 2613 3963 2395 4173 
Q 2178 4384 1772 4384 
Q 1403 4384 1187 4182 
Q 972 3981 928 3597 
L 550 3597 
L 550 4531 
z
" transform="scale(0.015625)"/>
     </defs>
     <use xlink:href="#DejaVuSerif-Bold-35"/>
     <use xlink:href="#DejaVuSerif-Bold-2e" transform="translate(69.580078 0)"/>
     <use xlink:href="#DejaVuSerif-Bold-37" transform="translate(104.394531 0)"/>
     <use xlink:href="#DejaVuSerif-Bold-33" transform="translate(173.974609 0)"/>
     <use xlink:href="#DejaVuSerif-Bold-34" transform="translate(243.554688 0)"/>
    </g>
   </g>
   <g id="text_15">
    <!-- +2.9% -->
    <g style="fill: #008000" transform="translate(351.575625 108.118271) scale(0.1 -0.1)">
     <defs>
      <path id="DejaVuSerif-Bold-2b" d="M 3041 4013 
L 3041 2369 
L 4684 2369 
L 4684 1650 
L 3041 1650 
L 3041 6 
L 2322 6 
L 2322 1650 
L 678 1650 
L 678 2369 
L 2322 2369 
L 2322 4013 
L 3041 4013 
z
" transform="scale(0.015625)"/>
      <path id="DejaVuSerif-Bold-32" d="M 844 3513 
L 469 3513 
L 469 4519 
Q 850 4634 1223 4692 
Q 1597 4750 1978 4750 
Q 2869 4750 3367 4386 
Q 3866 4022 3866 3372 
Q 3866 2909 3591 2542 
Q 3316 2175 2541 1672 
L 1241 819 
L 3450 819 
L 3450 1369 
L 3878 1369 
L 3878 0 
L 428 0 
L 428 763 
L 1119 1241 
Q 2003 1850 2297 2278 
Q 2591 2706 2591 3278 
Q 2591 3819 2367 4101 
Q 2144 4384 1716 4384 
Q 1347 4384 1125 4161 
Q 903 3938 844 3513 
z
" transform="scale(0.015625)"/>
      <path id="DejaVuSerif-Bold-25" d="M 1381 4434 
Q 1181 4434 1093 4217 
Q 1006 4000 1006 3481 
Q 1006 2959 1093 2740 
Q 1181 2522 1381 2522 
Q 1584 2522 1671 2740 
Q 1759 2959 1759 3481 
Q 1759 4000 1671 4217 
Q 1584 4434 1381 4434 
z
M 1381 4750 
Q 1978 4750 2295 4423 
Q 2613 4097 2613 3481 
Q 2613 2866 2295 2537 
Q 1978 2209 1381 2209 
Q 788 2209 470 2537 
Q 153 2866 153 3481 
Q 153 4097 470 4423 
Q 788 4750 1381 4750 
z
M 4231 4750 
L 4769 4750 
L 1850 -91 
L 1313 -91 
L 4231 4750 
z
M 4697 2450 
Q 5294 2450 5609 2123 
Q 5925 1797 5925 1184 
Q 5925 569 5609 239 
Q 5294 -91 4697 -91 
Q 4103 -91 3786 239 
Q 3469 569 3469 1184 
Q 3469 1797 3786 2123 
Q 4103 2450 4697 2450 
z
M 4697 2138 
Q 4494 2138 4406 1920 
Q 4319 1703 4319 1184 
Q 4319 663 4408 444 
Q 4497 225 4697 225 
Q 4900 225 4987 444 
Q 5075 663 5075 1184 
Q 5075 1703 4987 1920 
Q 4900 2138 4697 2138 
z
" transform="scale(0.015625)"/>
     </defs>
     <use xlink:href="#DejaVuSerif-Bold-2b"/>
     <use xlink:href="#DejaVuSerif-Bold-32" transform="translate(83.789062 0)"/>
     <use xlink:href="#DejaVuSerif-Bold-2e" transform="translate(153.369141 0)"/>
     <use xlink:href="#DejaVuSerif-Bold-39" transform="translate(188.183594 0)"/>
     <use xlink:href="#DejaVuSerif-Bold-25" transform="translate(257.763672 0)"/>
    </g>
   </g>
   <g id="text_16">
    <!-- +19.2% -->
    <g style="fill: #008000" transform="translate(564.957108 65.955559) scale(0.1 -0.1)">
     <defs>
      <path id="DejaVuSerif-Bold-31" d="M 878 0 
L 878 378 
L 1753 378 
L 1753 4153 
L 781 3578 
L 781 4044 
L 1953 4750 
L 2938 4750 
L 2938 378 
L 3816 378 
L 3816 0 
L 878 0 
z
" transform="scale(0.015625)"/>
     </defs>
     <use xlink:href="#DejaVuSerif-Bold-2b"/>
     <use xlink:href="#DejaVuSerif-Bold-31" transform="translate(83.789062 0)"/>
     <use xlink:href="#DejaVuSerif-Bold-39" transform="translate(153.369141 0)"/>
     <use xlink:href="#DejaVuSerif-Bold-2e" transform="translate(222.949219 0)"/>
     <use xlink:href="#DejaVuSerif-Bold-32" transform="translate(257.763672 0)"/>
     <use xlink:href="#DejaVuSerif-Bold-25" transform="translate(327.34375 0)"/>
    </g>
   </g>
   <g id="text_17">
    <g id="patch_10">
     <path d="M 48.608288 68.63561 
L 248.770788 68.63561 
Q 251.770788 68.63561 251.770788 65.63561 
L 251.770788 44.475297 
Q 251.770788 41.475297 248.770788 41.475297 
L 48.608288 41.475297 
Q 45.608288 41.475297 45.608288 44.475297 
L 45.608288 65.63561 
Q 45.608288 68.63561 48.608288 68.63561 
z
" style="fill: #ffffe0; opacity: 0.8; stroke: #000000; stroke-linejoin: miter"/>
    </g>
    <!-- Higher ratios = better FC compliance -->
    <g transform="translate(48.608288 52.215922) scale(0.1 -0.1)">
     <defs>
      <path id="DejaVuSerif-48" d="M 353 0 
L 353 331 
L 947 331 
L 947 4331 
L 353 4331 
L 353 4666 
L 2175 4666 
L 2175 4331 
L 1581 4331 
L 1581 2719 
L 4000 2719 
L 4000 4331 
L 3406 4331 
L 3406 4666 
L 5228 4666 
L 5228 4331 
L 4634 4331 
L 4634 331 
L 5228 331 
L 5228 0 
L 3406 0 
L 3406 331 
L 4000 331 
L 4000 2338 
L 1581 2338 
L 1581 331 
L 2175 331 
L 2175 0 
L 353 0 
z
" transform="scale(0.015625)"/>
      <path id="DejaVuSerif-67" d="M 3359 2988 
L 3359 72 
Q 3359 -644 2965 -1033 
Q 2572 -1422 1844 -1422 
Q 1516 -1422 1216 -1362 
Q 916 -1303 641 -1184 
L 641 -488 
L 941 -488 
Q 997 -813 1206 -963 
Q 1416 -1113 1806 -1113 
Q 2313 -1113 2548 -827 
Q 2784 -541 2784 72 
L 2784 519 
Q 2616 206 2355 57 
Q 2094 -91 1709 -91 
Q 1097 -91 708 395 
Q 319 881 319 1663 
Q 319 2444 706 2928 
Q 1094 3413 1709 3413 
Q 2094 3413 2355 3264 
Q 2616 3116 2784 2803 
L 2784 3322 
L 3909 3322 
L 3909 2988 
L 3359 2988 
z
M 2784 1825 
Q 2784 2422 2554 2737 
Q 2325 3053 1888 3053 
Q 1444 3053 1217 2703 
Q 991 2353 991 1663 
Q 991 975 1217 622 
Q 1444 269 1888 269 
Q 2325 269 2554 583 
Q 2784 897 2784 1497 
L 2784 1825 
z
" transform="scale(0.015625)"/>
      <path id="DejaVuSerif-73" d="M 359 184 
L 359 959 
L 691 959 
Q 703 588 923 403 
Q 1144 219 1575 219 
Q 1963 219 2166 364 
Q 2369 509 2369 788 
Q 2369 1006 2220 1140 
Q 2072 1275 1594 1428 
L 1178 1569 
Q 750 1706 558 1912 
Q 366 2119 366 2438 
Q 366 2894 700 3153 
Q 1034 3413 1625 3413 
Q 1888 3413 2178 3344 
Q 2469 3275 2778 3144 
L 2778 2419 
L 2447 2419 
Q 2434 2741 2221 2922 
Q 2009 3103 1644 3103 
Q 1281 3103 1095 2975 
Q 909 2847 909 2591 
Q 909 2381 1050 2254 
Q 1191 2128 1613 1997 
L 2069 1856 
Q 2541 1709 2748 1489 
Q 2956 1269 2956 922 
Q 2956 450 2595 179 
Q 2234 -91 1600 -91 
Q 1278 -91 972 -22 
Q 666 47 359 184 
z
" transform="scale(0.015625)"/>
      <path id="DejaVuSerif-3d" d="M 678 2894 
L 4684 2894 
L 4684 2394 
L 678 2394 
L 678 2894 
z
M 678 1619 
L 4684 1619 
L 4684 1119 
L 678 1119 
L 678 1619 
z
" transform="scale(0.015625)"/>
      <path id="DejaVuSerif-62" d="M 738 331 
L 738 4531 
L 184 4531 
L 184 4863 
L 1313 4863 
L 1313 2803 
Q 1481 3116 1742 3264 
Q 2003 3413 2388 3413 
Q 3000 3413 3387 2928 
Q 3775 2444 3775 1663 
Q 3775 881 3387 395 
Q 3000 -91 2388 -91 
Q 2003 -91 1742 57 
Q 1481 206 1313 519 
L 1313 0 
L 184 0 
L 184 331 
L 738 331 
z
M 1313 1497 
Q 1313 897 1542 583 
Q 1772 269 2209 269 
Q 2650 269 2876 622 
Q 3103 975 3103 1663 
Q 3103 2353 2876 2703 
Q 2650 3053 2209 3053 
Q 1772 3053 1542 2737 
Q 1313 2422 1313 1825 
L 1313 1497 
z
" transform="scale(0.015625)"/>
      <path id="DejaVuSerif-46" d="M 353 0 
L 353 331 
L 947 331 
L 947 4331 
L 353 4331 
L 353 4666 
L 4172 4666 
L 4172 3628 
L 3788 3628 
L 3788 4281 
L 1581 4281 
L 1581 2719 
L 3175 2719 
L 3175 3303 
L 3559 3303 
L 3559 1753 
L 3175 1753 
L 3175 2338 
L 1581 2338 
L 1581 331 
L 2328 331 
L 2328 0 
L 353 0 
z
" transform="scale(0.015625)"/>
      <path id="DejaVuSerif-6d" d="M 3316 2675 
Q 3481 3041 3739 3227 
Q 3997 3413 4341 3413 
Q 4863 3413 5119 3089 
Q 5375 2766 5375 2113 
L 5375 331 
L 5894 331 
L 5894 0 
L 4300 0 
L 4300 331 
L 4800 331 
L 4800 2047 
Q 4800 2556 4650 2772 
Q 4500 2988 4153 2988 
Q 3769 2988 3567 2697 
Q 3366 2406 3366 1850 
L 3366 331 
L 3866 331 
L 3866 0 
L 2291 0 
L 2291 331 
L 2791 331 
L 2791 2069 
Q 2791 2566 2641 2777 
Q 2491 2988 2144 2988 
Q 1759 2988 1557 2697 
Q 1356 2406 1356 1850 
L 1356 331 
L 1856 331 
L 1856 0 
L 263 0 
L 263 331 
L 781 331 
L 781 2994 
L 231 2994 
L 231 3322 
L 1356 3322 
L 1356 2731 
Q 1516 3063 1762 3238 
Q 2009 3413 2322 3413 
Q 2709 3413 2968 3220 
Q 3228 3028 3316 2675 
z
" transform="scale(0.015625)"/>
      <path id="DejaVuSerif-70" d="M 1313 1825 
L 1313 1497 
Q 1313 897 1542 583 
Q 1772 269 2209 269 
Q 2650 269 2876 622 
Q 3103 975 3103 1663 
Q 3103 2353 2876 2703 
Q 2650 3053 2209 3053 
Q 1772 3053 1542 2737 
Q 1313 2422 1313 1825 
z
M 738 2988 
L 184 2988 
L 184 3322 
L 1313 3322 
L 1313 2803 
Q 1481 3116 1742 3264 
Q 2003 3413 2388 3413 
Q 3000 3413 3387 2928 
Q 3775 2444 3775 1663 
Q 3775 881 3387 395 
Q 3000 -91 2388 -91 
Q 2003 -91 1742 57 
Q 1481 206 1313 519 
L 1313 -997 
L 1856 -997 
L 1856 -1331 
L 184 -1331 
L 184 -997 
L 738 -997 
L 738 2988 
z
" transform="scale(0.015625)"/>
     </defs>
     <use xlink:href="#DejaVuSerif-48"/>
     <use xlink:href="#DejaVuSerif-69" transform="translate(87.207031 0)"/>
     <use xlink:href="#DejaVuSerif-67" transform="translate(119.189453 0)"/>
     <use xlink:href="#DejaVuSerif-68" transform="translate(183.203125 0)"/>
     <use xlink:href="#DejaVuSerif-65" transform="translate(247.607422 0)"/>
     <use xlink:href="#DejaVuSerif-72" transform="translate(306.787109 0)"/>
     <use xlink:href="#DejaVuSerif-20" transform="translate(354.589844 0)"/>
     <use xlink:href="#DejaVuSerif-72" transform="translate(386.376953 0)"/>
     <use xlink:href="#DejaVuSerif-61" transform="translate(434.179688 0)"/>
     <use xlink:href="#DejaVuSerif-74" transform="translate(493.798828 0)"/>
     <use xlink:href="#DejaVuSerif-69" transform="translate(533.984375 0)"/>
     <use xlink:href="#DejaVuSerif-6f" transform="translate(565.966797 0)"/>
     <use xlink:href="#DejaVuSerif-73" transform="translate(626.171875 0)"/>
     <use xlink:href="#DejaVuSerif-20" transform="translate(677.490234 0)"/>
     <use xlink:href="#DejaVuSerif-3d" transform="translate(709.277344 0)"/>
     <use xlink:href="#DejaVuSerif-20" transform="translate(793.066406 0)"/>
     <use xlink:href="#DejaVuSerif-62" transform="translate(824.853516 0)"/>
     <use xlink:href="#DejaVuSerif-65" transform="translate(888.867188 0)"/>
     <use xlink:href="#DejaVuSerif-74" transform="translate(948.046875 0)"/>
     <use xlink:href="#DejaVuSerif-74" transform="translate(988.232422 0)"/>
     <use xlink:href="#DejaVuSerif-65" transform="translate(1028.417969 0)"/>
     <use xlink:href="#DejaVuSerif-72" transform="translate(1087.597656 0)"/>
     <use xlink:href="#DejaVuSerif-20" transform="translate(1135.400391 0)"/>
     <use xlink:href="#DejaVuSerif-46" transform="translate(1167.1875 0)"/>
     <use xlink:href="#DejaVuSerif-43" transform="translate(1236.572266 0)"/>
     <use xlink:href="#DejaVuSerif-20" transform="translate(1313.085938 0)"/>
     <use xlink:href="#DejaVuSerif-63" transform="translate(1344.873047 0)"/>
     <use xlink:href="#DejaVuSerif-6f" transform="translate(1400.878906 0)"/>
     <use xlink:href="#DejaVuSerif-6d" transform="translate(1461.083984 0)"/>
     <use xlink:href="#DejaVuSerif-70" transform="translate(1555.908203 0)"/>
     <use xlink:href="#DejaVuSerif-6c" transform="translate(1619.921875 0)"/>
     <use xlink:href="#DejaVuSerif-69" transform="translate(1651.904297 0)"/>
     <use xlink:href="#DejaVuSerif-61" transform="translate(1683.886719 0)"/>
     <use xlink:href="#DejaVuSerif-6e" transform="translate(1743.505859 0)"/>
     <use xlink:href="#DejaVuSerif-63" transform="translate(1807.910156 0)"/>
     <use xlink:href="#DejaVuSerif-65" transform="translate(1863.916016 0)"/>
    </g>
    <!-- Ciliate code shows 19.2% improvement -->
    <g transform="translate(48.608288 63.555923) scale(0.1 -0.1)">
     <defs>
      <path id="DejaVuSerif-77" d="M 3072 3322 
L 3922 728 
L 4672 2988 
L 4191 2988 
L 4191 3322 
L 5394 3322 
L 5394 2988 
L 5025 2988 
L 4038 0 
L 3559 0 
L 2741 2484 
L 1919 0 
L 1459 0 
L 475 2988 
L 103 2988 
L 103 3322 
L 1606 3322 
L 1606 2988 
L 1069 2988 
L 1813 728 
L 2669 3322 
L 3072 3322 
z
" transform="scale(0.015625)"/>
      <path id="DejaVuSerif-39" d="M 2994 2091 
Q 2784 1856 2512 1740 
Q 2241 1625 1900 1625 
Q 1206 1625 804 2044 
Q 403 2463 403 3188 
Q 403 3897 839 4323 
Q 1275 4750 2003 4750 
Q 2794 4750 3217 4161 
Q 3641 3572 3641 2478 
Q 3641 1253 3137 581 
Q 2634 -91 1722 -91 
Q 1475 -91 1203 -44 
Q 931 3 647 97 
L 647 872 
L 997 872 
Q 1038 556 1241 387 
Q 1444 219 1784 219 
Q 2391 219 2687 676 
Q 2984 1134 2994 2091 
z
M 1978 4441 
Q 1534 4441 1298 4117 
Q 1063 3794 1063 3188 
Q 1063 2581 1298 2256 
Q 1534 1931 1978 1931 
Q 2422 1931 2658 2245 
Q 2894 2559 2894 3150 
Q 2894 3772 2656 4106 
Q 2419 4441 1978 4441 
z
" transform="scale(0.015625)"/>
      <path id="DejaVuSerif-2e" d="M 603 325 
Q 603 500 722 622 
Q 841 744 1019 744 
Q 1191 744 1312 622 
Q 1434 500 1434 325 
Q 1434 153 1312 31 
Q 1191 -91 1019 -91 
Q 841 -91 722 29 
Q 603 150 603 325 
z
" transform="scale(0.015625)"/>
      <path id="DejaVuSerif-25" d="M 1434 4459 
Q 1159 4459 1004 4200 
Q 850 3941 850 3475 
Q 850 3016 1008 2753 
Q 1166 2491 1434 2491 
Q 1700 2491 1854 2752 
Q 2009 3013 2009 3475 
Q 2009 3938 1854 4198 
Q 1700 4459 1434 4459 
z
M 4653 2169 
Q 4381 2169 4226 1906 
Q 4072 1644 4072 1178 
Q 4072 719 4228 458 
Q 4384 197 4653 197 
Q 4922 197 5075 458 
Q 5228 719 5228 1178 
Q 5228 1641 5073 1905 
Q 4919 2169 4653 2169 
z
M 4653 2450 
Q 5147 2450 5437 2106 
Q 5728 1763 5728 1178 
Q 5728 594 5436 251 
Q 5144 -91 4653 -91 
Q 4153 -91 3862 251 
Q 3572 594 3572 1178 
Q 3572 1766 3864 2108 
Q 4156 2450 4653 2450 
z
M 4263 4750 
L 4738 4750 
L 1819 -91 
L 1344 -91 
L 4263 4750 
z
M 1428 4750 
Q 1922 4750 2215 4408 
Q 2509 4066 2509 3481 
Q 2509 2891 2217 2550 
Q 1925 2209 1428 2209 
Q 931 2209 642 2551 
Q 353 2894 353 3481 
Q 353 4063 643 4406 
Q 934 4750 1428 4750 
z
" transform="scale(0.015625)"/>
      <path id="DejaVuSerif-76" d="M 1581 0 
L 359 2988 
L -19 2988 
L -19 3322 
L 1509 3322 
L 1509 2988 
L 978 2988 
L 1913 703 
L 2847 2988 
L 2350 2988 
L 2350 3322 
L 3597 3322 
L 3597 2988 
L 3225 2988 
L 2003 0 
L 1581 0 
z
" transform="scale(0.015625)"/>
     </defs>
     <use xlink:href="#DejaVuSerif-43"/>
     <use xlink:href="#DejaVuSerif-69" transform="translate(76.513672 0)"/>
     <use xlink:href="#DejaVuSerif-6c" transform="translate(108.496094 0)"/>
     <use xlink:href="#DejaVuSerif-69" transform="translate(140.478516 0)"/>
     <use xlink:href="#DejaVuSerif-61" transform="translate(172.460938 0)"/>
     <use xlink:href="#DejaVuSerif-74" transform="translate(232.080078 0)"/>
     <use xlink:href="#DejaVuSerif-65" transform="translate(272.265625 0)"/>
     <use xlink:href="#DejaVuSerif-20" transform="translate(331.445312 0)"/>
     <use xlink:href="#DejaVuSerif-63" transform="translate(363.232422 0)"/>
     <use xlink:href="#DejaVuSerif-6f" transform="translate(419.238281 0)"/>
     <use xlink:href="#DejaVuSerif-64" transform="translate(479.443359 0)"/>
     <use xlink:href="#DejaVuSerif-65" transform="translate(543.457031 0)"/>
     <use xlink:href="#DejaVuSerif-20" transform="translate(602.636719 0)"/>
     <use xlink:href="#DejaVuSerif-73" transform="translate(634.423828 0)"/>
     <use xlink:href="#DejaVuSerif-68" transform="translate(685.742188 0)"/>
     <use xlink:href="#DejaVuSerif-6f" transform="translate(750.146484 0)"/>
     <use xlink:href="#DejaVuSerif-77" transform="translate(810.351562 0)"/>
     <use xlink:href="#DejaVuSerif-73" transform="translate(895.947266 0)"/>
     <use xlink:href="#DejaVuSerif-20" transform="translate(947.265625 0)"/>
     <use xlink:href="#DejaVuSerif-31" transform="translate(979.052734 0)"/>
     <use xlink:href="#DejaVuSerif-39" transform="translate(1042.675781 0)"/>
     <use xlink:href="#DejaVuSerif-2e" transform="translate(1106.298828 0)"/>
     <use xlink:href="#DejaVuSerif-32" transform="translate(1138.085938 0)"/>
     <use xlink:href="#DejaVuSerif-25" transform="translate(1201.708984 0)"/>
     <use xlink:href="#DejaVuSerif-20" transform="translate(1296.728516 0)"/>
     <use xlink:href="#DejaVuSerif-69" transform="translate(1328.515625 0)"/>
     <use xlink:href="#DejaVuSerif-6d" transform="translate(1360.498047 0)"/>
     <use xlink:href="#DejaVuSerif-70" transform="translate(1455.322266 0)"/>
     <use xlink:href="#DejaVuSerif-72" transform="translate(1519.335938 0)"/>
     <use xlink:href="#DejaVuSerif-6f" transform="translate(1567.138672 0)"/>
     <use xlink:href="#DejaVuSerif-76" transform="translate(1627.34375 0)"/>
     <use xlink:href="#DejaVuSerif-65" transform="translate(1683.837891 0)"/>
     <use xlink:href="#DejaVuSerif-6d" transform="translate(1743.017578 0)"/>
     <use xlink:href="#DejaVuSerif-65" transform="translate(1837.841797 0)"/>
     <use xlink:href="#DejaVuSerif-6e" transform="translate(1897.021484 0)"/>
     <use xlink:href="#DejaVuSerif-74" transform="translate(1961.425781 0)"/>
    </g>
   </g>
   <g id="text_18">
    <!-- Genetic Code Variant Validation -->
    <g transform="translate(263.91875 17.077969) scale(0.13 -0.13)">
     <defs>
      <path id="DejaVuSerif-47" d="M 4097 3272 
Q 3988 3856 3641 4136 
Q 3294 4416 2675 4416 
Q 1869 4416 1472 3897 
Q 1075 3378 1075 2328 
Q 1075 1300 1484 772 
Q 1894 244 2688 244 
Q 3041 244 3362 331 
Q 3684 419 3975 594 
L 3975 1797 
L 3097 1797 
L 3097 2131 
L 4609 2131 
L 4609 391 
Q 4194 150 3714 29 
Q 3234 -91 2688 -91 
Q 1631 -91 995 570 
Q 359 1231 359 2328 
Q 359 3434 996 4092 
Q 1634 4750 2713 4750 
Q 3113 4750 3539 4658 
Q 3966 4566 4447 4378 
L 4447 3272 
L 4097 3272 
z
" transform="scale(0.015625)"/>
     </defs>
     <use xlink:href="#DejaVuSerif-47"/>
     <use xlink:href="#DejaVuSerif-65" transform="translate(79.882812 0)"/>
     <use xlink:href="#DejaVuSerif-6e" transform="translate(139.0625 0)"/>
     <use xlink:href="#DejaVuSerif-65" transform="translate(203.466797 0)"/>
     <use xlink:href="#DejaVuSerif-74" transform="translate(262.646484 0)"/>
     <use xlink:href="#DejaVuSerif-69" transform="translate(302.832031 0)"/>
     <use xlink:href="#DejaVuSerif-63" transform="translate(334.814453 0)"/>
     <use xlink:href="#DejaVuSerif-20" transform="translate(390.820312 0)"/>
     <use xlink:href="#DejaVuSerif-43" transform="translate(422.607422 0)"/>
     <use xlink:href="#DejaVuSerif-6f" transform="translate(499.121094 0)"/>
     <use xlink:href="#DejaVuSerif-64" transform="translate(559.326172 0)"/>
     <use xlink:href="#DejaVuSerif-65" transform="translate(623.339844 0)"/>
     <use xlink:href="#DejaVuSerif-20" transform="translate(682.519531 0)"/>
     <use xlink:href="#DejaVuSerif-56" transform="translate(714.306641 0)"/>
     <use xlink:href="#DejaVuSerif-61" transform="translate(777.398438 0)"/>
     <use xlink:href="#DejaVuSerif-72" transform="translate(837.017578 0)"/>
     <use xlink:href="#DejaVuSerif-69" transform="translate(884.820312 0)"/>
     <use xlink:href="#DejaVuSerif-61" transform="translate(916.802734 0)"/>
     <use xlink:href="#DejaVuSerif-6e" transform="translate(976.421875 0)"/>
     <use xlink:href="#DejaVuSerif-74" transform="translate(1040.826172 0)"/>
     <use xlink:href="#DejaVuSerif-20" transform="translate(1081.011719 0)"/>
     <use xlink:href="#DejaVuSerif-56" transform="translate(1112.798828 0)"/>
     <use xlink:href="#DejaVuSerif-61" transform="translate(1175.890625 0)"/>
     <use xlink:href="#DejaVuSerif-6c" transform="translate(1235.509766 0)"/>
     <use xlink:href="#DejaVuSerif-69" transform="translate(1267.492188 0)"/>
     <use xlink:href="#DejaVuSerif-64" transform="translate(1299.474609 0)"/>
     <use xlink:href="#DejaVuSerif-61" transform="translate(1363.488281 0)"/>
     <use xlink:href="#DejaVuSerif-74" transform="translate(1423.107422 0)"/>
     <use xlink:href="#DejaVuSerif-69" transform="translate(1463.292969 0)"/>
     <use xlink:href="#DejaVuSerif-6f" transform="translate(1495.275391 0)"/>
     <use xlink:href="#DejaVuSerif-6e" transform="translate(1555.480469 0)"/>
    </g>
    <!-- (FC Compliance Improvements Through Orbit Mergers) -->
    <g transform="translate(184.410547 31.635125) scale(0.13 -0.13)">
     <defs>
      <path id="DejaVuSerif-28" d="M 2041 -997 
Q 1281 -656 893 83 
Q 506 822 506 1931 
Q 506 3044 893 3783 
Q 1281 4522 2041 4863 
L 2041 4556 
Q 1559 4225 1350 3623 
Q 1141 3022 1141 1931 
Q 1141 844 1350 242 
Q 1559 -359 2041 -691 
L 2041 -997 
z
" transform="scale(0.015625)"/>
      <path id="DejaVuSerif-49" d="M 1581 331 
L 2175 331 
L 2175 0 
L 353 0 
L 353 331 
L 947 331 
L 947 4331 
L 353 4331 
L 353 4666 
L 2175 4666 
L 2175 4331 
L 1581 4331 
L 1581 331 
z
" transform="scale(0.015625)"/>
      <path id="DejaVuSerif-54" d="M 1222 0 
L 1222 331 
L 1819 331 
L 1819 4294 
L 447 4294 
L 447 3566 
L 63 3566 
L 63 4666 
L 4206 4666 
L 4206 3566 
L 3822 3566 
L 3822 4294 
L 2450 4294 
L 2450 331 
L 3047 331 
L 3047 0 
L 1222 0 
z
" transform="scale(0.015625)"/>
      <path id="DejaVuSerif-4f" d="M 2625 244 
Q 3391 244 3781 770 
Q 4172 1297 4172 2328 
Q 4172 3363 3781 3889 
Q 3391 4416 2625 4416 
Q 1856 4416 1465 3889 
Q 1075 3363 1075 2328 
Q 1075 1297 1465 770 
Q 1856 244 2625 244 
z
M 2625 -91 
Q 2150 -91 1751 65 
Q 1353 222 1050 525 
Q 700 875 529 1319 
Q 359 1763 359 2328 
Q 359 2894 529 3339 
Q 700 3784 1050 4134 
Q 1356 4441 1750 4595 
Q 2144 4750 2625 4750 
Q 3641 4750 4266 4084 
Q 4891 3419 4891 2328 
Q 4891 1769 4719 1320 
Q 4547 872 4197 525 
Q 3891 219 3497 64 
Q 3103 -91 2625 -91 
z
" transform="scale(0.015625)"/>
      <path id="DejaVuSerif-29" d="M 453 -997 
L 453 -691 
Q 934 -359 1145 242 
Q 1356 844 1356 1931 
Q 1356 3022 1145 3623 
Q 934 4225 453 4556 
L 453 4863 
Q 1216 4522 1603 3783 
Q 1991 3044 1991 1931 
Q 1991 822 1603 83 
Q 1216 -656 453 -997 
z
" transform="scale(0.015625)"/>
     </defs>
     <use xlink:href="#DejaVuSerif-28"/>
     <use xlink:href="#DejaVuSerif-46" transform="translate(39.013672 0)"/>
     <use xlink:href="#DejaVuSerif-43" transform="translate(108.398438 0)"/>
     <use xlink:href="#DejaVuSerif-20" transform="translate(184.912109 0)"/>
     <use xlink:href="#DejaVuSerif-43" transform="translate(216.699219 0)"/>
     <use xlink:href="#DejaVuSerif-6f" transform="translate(293.212891 0)"/>
     <use xlink:href="#DejaVuSerif-6d" transform="translate(353.417969 0)"/>
     <use xlink:href="#DejaVuSerif-70" transform="translate(448.242188 0)"/>
     <use xlink:href="#DejaVuSerif-6c" transform="translate(512.255859 0)"/>
     <use xlink:href="#DejaVuSerif-69" transform="translate(544.238281 0)"/>
     <use xlink:href="#DejaVuSerif-61" transform="translate(576.220703 0)"/>
     <use xlink:href="#DejaVuSerif-6e" transform="translate(635.839844 0)"/>
     <use xlink:href="#DejaVuSerif-63" transform="translate(700.244141 0)"/>
     <use xlink:href="#DejaVuSerif-65" transform="translate(756.25 0)"/>
     <use xlink:href="#DejaVuSerif-20" transform="translate(815.429688 0)"/>
     <use xlink:href="#DejaVuSerif-49" transform="translate(847.216797 0)"/>
     <use xlink:href="#DejaVuSerif-6d" transform="translate(886.71875 0)"/>
     <use xlink:href="#DejaVuSerif-70" transform="translate(981.542969 0)"/>
     <use xlink:href="#DejaVuSerif-72" transform="translate(1045.556641 0)"/>
     <use xlink:href="#DejaVuSerif-6f" transform="translate(1093.359375 0)"/>
     <use xlink:href="#DejaVuSerif-76" transform="translate(1153.564453 0)"/>
     <use xlink:href="#DejaVuSerif-65" transform="translate(1210.058594 0)"/>
     <use xlink:href="#DejaVuSerif-6d" transform="translate(1269.238281 0)"/>
     <use xlink:href="#DejaVuSerif-65" transform="translate(1364.0625 0)"/>
     <use xlink:href="#DejaVuSerif-6e" transform="translate(1423.242188 0)"/>
     <use xlink:href="#DejaVuSerif-74" transform="translate(1487.646484 0)"/>
     <use xlink:href="#DejaVuSerif-73" transform="translate(1527.832031 0)"/>
     <use xlink:href="#DejaVuSerif-20" transform="translate(1579.150391 0)"/>
     <use xlink:href="#DejaVuSerif-54" transform="translate(1610.9375 0)"/>
     <use xlink:href="#DejaVuSerif-68" transform="translate(1677.636719 0)"/>
     <use xlink:href="#DejaVuSerif-72" transform="translate(1742.041016 0)"/>
     <use xlink:href="#DejaVuSerif-6f" transform="translate(1789.84375 0)"/>
     <use xlink:href="#DejaVuSerif-75" transform="translate(1850.048828 0)"/>
     <use xlink:href="#DejaVuSerif-67" transform="translate(1914.453125 0)"/>
     <use xlink:href="#DejaVuSerif-68" transform="translate(1978.466797 0)"/>
     <use xlink:href="#DejaVuSerif-20" transform="translate(2042.871094 0)"/>
     <use xlink:href="#DejaVuSerif-4f" transform="translate(2074.658203 0)"/>
     <use xlink:href="#DejaVuSerif-72" transform="translate(2156.640625 0)"/>
     <use xlink:href="#DejaVuSerif-62" transform="translate(2204.443359 0)"/>
     <use xlink:href="#DejaVuSerif-69" transform="translate(2268.457031 0)"/>
     <use xlink:href="#DejaVuSerif-74" transform="translate(2300.439453 0)"/>
     <use xlink:href="#DejaVuSerif-20" transform="translate(2340.625 0)"/>
     <use xlink:href="#DejaVuSerif-4d" transform="translate(2372.412109 0)"/>
     <use xlink:href="#DejaVuSerif-65" transform="translate(2474.804688 0)"/>
     <use xlink:href="#DejaVuSerif-72" transform="translate(2533.984375 0)"/>
     <use xlink:href="#DejaVuSerif-67" transform="translate(2581.787109 0)"/>
     <use xlink:href="#DejaVuSerif-65" transform="translate(2645.800781 0)"/>
     <use xlink:href="#DejaVuSerif-72" transform="translate(2704.980469 0)"/>
     <use xlink:href="#DejaVuSerif-73" transform="translate(2752.783203 0)"/>
     <use xlink:href="#DejaVuSerif-29" transform="translate(2804.101562 0)"/>
    </g>
   </g>
  </g>
 </g>
 <defs>
  <clipPath id="pfe92c2909a">
   <rect x="35.249688" y="37.635125" width="667.93" height="349.118"/>
  </clipPath>
 </defs>
</svg>
